<svg xmlns="http://www.w3.org/2000/svg" viewBox="0 0 32 32">
  <defs>
    <linearGradient id="bg" x1="0" y1="0" x2="1" y2="1">
      <stop offset="0%" stop-color="#1976d2"/>
      <stop offset="100%" stop-color="#0a2d6e"/>
    </linearGradient>
  </defs>
  <!-- Background -->
  <rect width="32" height="32" rx="7" fill="url(#bg)"/>
  <!-- Sun rays -->
  <g stroke="#FFD54F" stroke-width="1.6" stroke-linecap="round">
    <line x1="12" y1="3.5" x2="12" y2="6"/>
    <line x1="12" y1="18" x2="12" y2="20.5"/>
    <line x1="3.5" y1="12" x2="6" y2="12"/>
    <line x1="18" y1="12" x2="20.5" y2="12"/>
    <line x1="5.98" y1="5.98" x2="7.75" y2="7.75"/>
    <line x1="16.25" y1="16.25" x2="18.02" y2="18.02"/>
    <line x1="18.02" y1="5.98" x2="16.25" y2="7.75"/>
    <line x1="7.75" y1="16.25" x2="5.98" y2="18.02"/>
  </g>
  <!-- Sun body -->
  <circle cx="12" cy="12" r="4.8" fill="#FFD54F"/>
  <!-- Cloud -->
  <path d="M16 28.5 Q13 28.5 13 25.8 Q13 23.5 15.5 23.5 Q16 21.2 18.8 21.2 Q21.6 21.2 22.1 23.5 Q24.5 23.5 24.5 25.8 Q24.5 28.5 21.5 28.5 Z" fill="white"/>
</svg>
